<?xml version="1.0" encoding="UTF-8"?>
<!DOCTYPE svg PUBLIC "-//W3C//DTD SVG 1.1//EN" "http://www.w3.org/Graphics/SVG/1.1/DTD/svg11.dtd">
<!-- Creator: CorelDRAW 2020 (64-Bit) -->
<svg xmlns="http://www.w3.org/2000/svg" xml:space="preserve" width="2067px" height="531px" version="1.1" shape-rendering="geometricPrecision" text-rendering="geometricPrecision" image-rendering="optimizeQuality" fill-rule="evenodd" clip-rule="evenodd"
viewBox="0 0 2067 531.51"
 xmlns:xlink="http://www.w3.org/1999/xlink"
 xmlns:xodm="http://www.corel.com/coreldraw/odm/2003">
 <g id="Capa_x0020_1">
  <metadata id="CorelCorpID_0Corel-Layer"/>
  <path d="M129.51 44.07l-3.33 3.77 -7.95 0.1c-5.02,-6.38 -5.46,-9.12 0.59,-15.28 10.39,-0.7 11.83,1.16 10.69,11.41zm-9.93 345.93c-8.83,-0.1 1.52,-0.41 -10.29,-8.93 -2.49,-1.8 -1.49,-0.5 -4.04,-3.11 2.61,-5.04 10.44,-14.37 15.28,-16.02 0.45,7.2 1.74,22.23 -0.95,28.06zm291.93 -93.67c-1.33,-7.38 -3.87,-17.44 1.44,-23.12 9.69,4.18 13.62,26.05 7.05,34.14 -6.04,-1.89 -5.79,-5.31 -8.49,-11.02zm-52.02 -13.53c6.59,5.79 4.84,35.67 -7.51,27.83 -8.59,-5.46 -4.57,-38.45 7.51,-27.83zm-257.91 -234.35c16.42,8.34 3.08,30.79 -12.93,22.21 -13.94,-7.47 -3.6,-30.6 12.93,-22.21zm-0.61 -3.91c21.45,6.95 10.99,37.31 -11.39,30.6 -19.92,-5.97 -11.62,-38.05 11.39,-30.6zm-11.96 262.06c20.04,6.64 10.49,39.66 -12.09,30.95 -20.91,-8.07 -9.27,-38.01 12.09,-30.95zm578.7 -30.6l8.22 -6.2c3.83,-2.9 5.09,-4.46 7.35,-7.86 5.28,-7.93 5.29,-13.69 8.94,-20.51 18.22,3.62 17.25,22.7 8.83,32.21 -6.15,6.95 -26.78,20.28 -33.34,2.36zm-595.47 101.49c-5.81,-1.36 0.81,-3 -4.4,-0.97 -0.22,20.35 30.18,23.14 34.82,15.05 0.96,-3.45 -4.03,-3.43 1.41,-10.77 17.61,6.05 7.69,39.12 -26.34,25.26 -20.36,-8.3 -32.77,-37.65 -2.53,-35.65l-2.96 7.08zm277.24 34.5c3.04,-5.77 0.6,-9.65 0.21,-15.96 21.4,7.32 13.32,35.16 -6.79,29.16 -9.94,-2.96 -19.15,-29.09 -19.22,-43.05 8.89,0.07 13.67,3.13 18.4,9.72 4.91,6.85 4.72,11.01 6.35,17.06l1.05 3.07zm187.43 -398.67c21.87,9.86 6.65,40.92 -15.34,31.55 -20.98,-8.94 -7.99,-42.06 15.34,-31.55zm-448.74 289.55c27.8,7.15 15.69,46.1 -11.43,38.83 -23.94,-6.41 -16.52,-46.03 11.43,-38.83zm175.93 -146.64c31.88,7.66 14.11,46.95 -13.02,37.94 -27.8,-9.24 -14.5,-44.55 13.02,-37.94zm197.9 -55.84c29.12,11.58 10.16,46.19 -16.76,37.05 -27.34,-9.28 -10.72,-47.98 16.76,-37.05zm-140.61 39.04c30.64,5.94 19.36,44.49 -9.18,39.17 -29.7,-5.53 -19.41,-44.72 9.18,-39.17zm214.43 -130.47c27.13,8.58 15.21,48.08 -13.01,40.27 -26.15,-7.24 -16.44,-49.57 13.01,-40.27zm87.22 296.47c-3.01,13.62 -21.7,24.84 -35.68,29.91 -19.33,7 -38.75,6.18 -60.27,5.67l0.73 -11.34c26.2,-4.9 40.43,1.58 67.97,-20.18 13.94,-11.03 7.23,-4.34 14.56,-7.82l12.69 3.76zm-316.49 154.82c-13.34,-0.17 -40.14,-26.44 -48.77,-34.68 -30.28,-28.92 -39.46,-119.44 -8.65,-167.44 4.79,-7.46 13.24,-18.96 20.55,-23.58 -11.2,18.47 -21.65,28.99 -27.78,54.77 -15.68,66 8.13,138.1 64.65,170.93zm243.3 -390.11c33.93,6.82 21.37,52.33 -11.19,45.46 -11.48,-2.43 -22.12,-13.71 -18.52,-28.38 2.7,-10.98 15.85,-19.86 29.71,-17.08zm-86.81 26.28c7.05,2.36 10.64,3.74 14.52,9.89 3.42,5.43 4.61,13.73 2.01,20.47 -10.82,28.08 -60.95,14.93 -49.36,-16.27 2.62,-7.08 5.17,-10.11 11.93,-13.05 7,-3.05 13.49,-3.51 20.9,-1.04zm-199.4 55.18c33.66,5.43 27.48,50.55 -8.43,46.63 -13.46,-1.47 -24.56,-13.13 -21.75,-28.28 2.12,-11.45 15.61,-20.71 30.18,-18.35zm64.34 -14.56c31.78,11.27 12.49,56.42 -20.56,43.61 -30.5,-11.82 -13.4,-55.65 20.56,-43.61zm-229.55 254.45c-10.63,4.58 -17.37,-2.33 -24.33,-4.98 4.14,-19.71 28.06,-38.99 45.77,-47.74 19.71,-9.75 50.25,-16.88 80.19,-13.65 2.53,17.74 -5.47,8.18 -31.1,10.67 -6.15,0.6 -12.42,1.31 -17.36,3.64 -14.77,6.96 -15.83,4.94 -29.4,13.85 -6.71,4.41 -16.75,15.01 -20.99,21.91 -5.5,8.93 -1.41,12.48 -2.78,16.3zm41.55 -301.74c-3.51,4.61 -11.5,10.44 -13.03,14.96 1.57,0.46 -0.49,0.27 3.55,-1.51 1.05,6.11 0.63,5.91 4.36,9.09 -1.86,-10.54 -3.51,-16.18 8.22,-18.83 8.64,-1.96 19.24,2.15 22.45,6.36 6.41,8.39 4.04,28.63 -31.91,26.54 -10.65,-0.62 -16.78,-1.43 -23.18,-7.41 -28.78,-26.85 20.25,-51.43 29.54,-29.2zm511.03 139.85c6.56,-3.06 6.61,-5.32 11.59,-8.57 17.23,2.71 29.56,15.35 19.46,32.91 -4.7,8.18 -24.06,28.68 -32.39,9.6 28.2,-5.86 11.58,-21.04 10.35,-24.25l4.57 -7.39 -5.23 -1.16 -1.92 8.5c-8.07,-0.52 -9.85,-3.4 -13.79,-7.52 -5.26,-5.49 -4.9,-4.33 -11.84,-8.74 2.82,-6.9 10.8,-8.39 14.87,-30.28 2.04,-10.95 4.54,-28.29 19.11,-24.47 19.29,5.05 1.67,36.76 -5.24,47.33 -3.05,4.67 -6.99,9.08 -9.54,14.04zm-97.82 -162.42c35.89,9.67 20.85,61.83 -16.53,51.47 -36.31,-10.06 -21.41,-61.68 16.53,-51.47zm73.8 176.61c-1.91,3.54 -0.32,1.64 -0.98,3.7l-1.06 2.87c-0.08,0.21 -0.21,0.67 -0.43,0.93l-3.72 -4.7c-0.32,7.81 2.68,5.74 8.43,9.91 5.93,4.3 6.16,3.58 13.32,7.26l-0.36 10.91 3.53 -7.23c0,0 4.79,6.92 7.89,7.79 16.7,4.63 1.7,-1.9 18.29,13.15 -8.09,16.77 -30.29,6.5 -34.23,7.36 -4.59,1 -1.26,-1.43 -0.82,1.05 -0.28,1.41 -4.65,-0.74 2.78,2.67 3.99,1.83 -0.02,-0.85 2.99,1.33 2.82,2.06 0.44,-1.42 1.96,2.4 -11.07,9.52 -44.21,-12.33 -38.33,-24.18 10.09,-0.9 4.58,5.95 14.92,10.42 -2.47,-3.43 -2.76,-2.83 -5.1,-7.67 8.73,1.78 12.32,1.59 20.49,-0.21l-3.71 -1.52c-2.38,-0.53 -29.46,1.16 -27.03,-23.05 1.03,-10.25 13.88,-32.01 24.77,-28.91 4.58,1.3 10.69,9.02 14.4,11.88 5.47,4.21 16.59,2.92 15.64,11.3 -0.77,6.78 -11.98,8.32 -20.5,6.97 -10.63,-1.69 -9.79,-6.82 -13.14,-14.43zm-215.48 52.54c-4.95,-14.61 -10.56,-46 4.26,-54.73 13.55,-4.27 66.99,35.91 40,90.45l-1.52 -1.72c-4.45,-6.13 -4.08,-10.81 -11.71,-13.55 -9.78,-3.51 -14.62,1.92 -21.81,4.55l-9.22 -25zm-38.21 64.11c-4.81,5.22 -10.66,5.11 -19.05,7.17 16.08,10.18 42.93,20.05 63.69,17.93 12.35,-1.27 13.12,-4.08 21.1,-6.99l-18.94 13.13c-9.03,6 -19.9,4.95 -24.37,10.45 -17.05,21 -24.11,19.25 -42.02,27.52 -0.64,3.62 -1.82,-3.3 0.69,1.07 1.85,3.23 1.9,-1.51 0.72,1.54 -25.42,1.47 -34.95,-31.66 -35.92,-51.57 -0.74,-15.41 2.36,-14.57 6.27,-24.84 -4.55,-4.03 -5.09,-3.56 -7.85,-10.12 3.41,1.38 6.39,5.27 9.54,7.55 16.57,11.98 29.46,10.36 46.14,7.16zm-1.25 -19.88c-9.97,-3.63 -12.59,-14.4 -41.7,-13.51 -9.24,-15.35 -9.12,-35.28 0.1,-50.41 5.59,-9.17 22.53,-27.53 41.01,-21.87 28.33,8.69 31.77,70.46 0.59,85.79zm45.05 24.9c5.42,-4.12 15.29,-4.93 21.11,-9.41 19.43,-15 10.49,-36.92 -3.81,-36.02 -7.2,0.45 -16.48,8.65 -19.96,11.53l3.08 -5.1c-7.06,-5.62 -8.92,-5.53 -8.61,-18.1 4.48,6.68 0.79,11.06 9.32,13.89 -7.35,-20.34 -16.19,-36.53 -13.76,-65.29 -1.32,-0.82 -0.31,-2.53 -2.07,0 1.39,-24.94 21.3,-20.44 36.39,-9.93 9.57,6.67 21.66,22.56 26.05,38.71 2.52,9.25 3.37,19.62 1.45,29.46 -2.32,11.81 -6.21,15.1 -10.74,22.26 -7.03,11.13 -3.59,27.81 -38.45,28zm-214.59 -150.9c-11.61,-3.59 -27.81,-11.79 -39.81,-16.87l-79.86 -34.47c-7.72,-3.43 -7.99,-9.05 -11.61,-17.34 -2.48,-5.66 -7.08,-14.54 -7.67,-20.34l128.91 42.16c5.27,4.27 9.56,38.25 10.04,46.86zm-68.82 220.59c-3.1,-1.57 -6.25,-3.94 -9.46,-5.71 1.62,-2.21 0.84,-1.69 3.72,-3.88l6.03 -4.43c-11.2,1.48 -24.86,14.79 -16.83,27.08 1.61,-3.54 0.32,-2.92 1.08,-6.24 0.62,-2.71 -0.58,-0.21 1.04,-3.2 1.44,-2.68 -0.18,-0.59 2.05,-2.28 3.59,4.69 2.59,4.34 3.03,11.54 3.68,-6.16 -0.33,-10.05 -1.48,-15.28 20.49,9.57 2.09,49.27 -26.78,31.74 -7.1,-4.31 -8.36,-8.72 -10.27,-18.85 -1.89,3.26 -1.78,9.11 -0.24,12.79 1.65,3.94 4.29,3.84 4.81,8.27 -12.25,2.17 -18.63,-0.66 -23.43,-8.12 -7.34,-11.42 -2.46,-18.57 -4.8,-25.63 -5.28,6.62 -2.47,14.65 -1.7,23.46 -11.88,-5.43 -20.99,-11.7 -22.14,-28.37 -1.03,-15.05 9.73,-25.82 22.02,-28.99 4.86,3.11 5.71,5.58 11.43,8.71 10.43,5.7 25.76,9.03 35.69,2 6.46,-4.58 5.33,-6.8 9.14,-12.94 11.08,-17.88 51.96,23.79 17.09,38.33zm239.57 -92.27c0.47,5.58 1.96,5.14 -0.15,8.32 -8.46,-22.26 -38.32,-19.38 -52.54,-18.81 0.27,-0.33 0.76,-1.15 0.91,-0.9 0,0 2.98,-2.32 3.74,-5.42 -11.28,-15.71 -6.74,-38.02 2.35,-52.17 15.19,-23.62 48.58,-30.63 56.32,-16.63 0.1,0.18 11.91,21.09 12.76,37.73 1.06,20.78 -8.23,42.65 -23.39,47.88zm131.24 -210.47c-48.95,13.44 -99.15,28.24 -148.39,41.18 -18.12,4.76 -143.04,41.14 -149.77,40.72l-8.41 -47.44 281.1 -96.76c10.3,10.99 22.02,45.23 25.47,62.3zm-31.17 -64.41l-201.8 70.32c-17.24,5.82 -33.28,11.92 -50.76,17.69 -29.83,9.85 -21.36,9.76 -51.37,-0.09 -17.55,-5.77 -34,-11.14 -51.56,-16.92 -12.9,-4.25 -40.71,-11.49 -51.21,-17.2 7.44,-3.49 25.12,-11.21 33.21,-11.63 5.69,7.1 2.53,8.19 3.96,9.92 7.02,5.24 81.33,30.68 93.36,31.43 8.32,0.51 39.09,-11.01 48.06,-14.07 7.92,-2.69 14.95,-5.07 22.95,-7.8 5.91,-2.01 19.25,-5.38 23.93,-9.01 -11.08,2.08 -26.62,8.25 -37.81,11.93 -12.48,4.1 -24.42,7.97 -37.02,11.89 -20.73,6.46 -20.46,5.46 -40.69,-0.91 -6.54,-2.06 -12.76,-4 -19.13,-6.03l-18.57 -7.26c12.13,-0.87 19.37,-1.32 26.53,-8.59 9.38,-9.53 6.87,-13.86 2.66,-25.21 10.76,-2.21 23.44,-7.64 34.32,-11.16 11.87,-3.84 23.31,-7.72 34.65,-11.47l102.67 -32.91c17.44,-5.07 22.43,-2.55 38.35,2.28 20.87,6.33 51.47,13.7 69.64,22.58 -8.41,5.99 -93.14,33.24 -113.77,40.25l-34.51 11.64c-0.34,0.16 -0.7,0.34 -1.02,0.5 -3.65,1.89 -1.23,0.53 -2.96,1.87 9.5,-1.78 65.12,-21.38 79.56,-26.07 14.56,-4.73 69.98,-21.07 76.96,-28.33 -13.02,-8.71 -54.37,-19.25 -73.02,-24.69 -17.73,-5.17 -21.55,-8.15 -40.09,-2.24l-111.18 35.58c-12.63,4.25 -24.17,7.92 -36.77,12.14 -13.08,4.39 -24.69,12.1 -34.63,3.41 12.1,-2.91 26.62,-8.78 39.14,-12.63l118.65 -37.88c44.58,-13.78 38.49,-14.09 83.35,0.16l75.92 28.51zm-280.46 426.17c-9.78,-3.23 -22.16,-13.98 -29.84,-19.42 -5.04,-3.57 -9.14,-6.51 -13.81,-9.83 -5.23,-3.73 -9.63,-8.86 -14.05,-10.58l0.52 -14.96c25.73,-6.91 18.27,-47.77 -10.56,-50.2l0.02 -31.61c5.68,-6.98 18.75,-11.92 29.77,-14.83 11.93,-3.16 27.81,-4.32 40.29,-5.48l-4.51 3.37c14.04,2.53 16.47,-15.71 9.15,-19.84 -4.76,-2.69 -3.74,0.2 -4.11,1.21 -14.99,0.2 -23.93,-1.12 -39.39,1.52 -6.88,1.17 -30.42,8.17 -33.1,7.7 -1.45,-30.15 -7.58,-58.83 -15.14,-86.34 -9.79,-35.6 -19.34,-52.33 -26.24,-75 10.93,2.69 31.54,12.77 42.2,17.56 13.96,6.26 27.55,12.24 41.75,18.21 7.15,3.01 13,5.74 20.21,9 6.17,2.79 16.72,4.25 18.76,11.78 3.32,12.2 4.8,39.94 6.11,53.67 7.67,80.72 -4.27,138.68 -18.03,214.07zm211.95 -277.96c8.06,1.59 15.26,3.58 21.7,7.42 16.75,9.98 31.86,27.48 41.82,43.69 22.06,35.91 22,94.6 -0.88,134.72 -3.91,6.86 -17.72,26.47 -25.46,31.02 -28.62,16.81 -59.35,22.78 -92.88,14.37 -27.09,-6.79 -50.32,-27.14 -63.8,-49.73 -15.75,-26.39 -21.15,-58.69 -15.46,-92.62 4.63,-27.59 20.96,-53.33 43.83,-68.93 20.33,-13.86 60.41,-26.02 91.13,-19.94zm3.39 -5.43c99.04,13.06 125.95,160.88 43.9,221.29 -91.06,67.04 -206.43,-8.18 -188.28,-123.11 5.25,-33.27 18.2,-56.17 44.62,-75.31 24.19,-17.52 62.46,-27.78 99.76,-22.87zm-10.58 -17.06c40.73,3.03 66.51,21.09 88.03,50.27 30.99,42.02 34.97,106.83 7.93,158.64 -10.08,19.29 -19.09,24.89 -31.33,37.77 -21.22,22.33 -68.3,36.1 -104.32,31.47 -19.25,-2.47 -37.32,-9.4 -50.66,-17.92 -47.86,-30.56 -68.09,-80.76 -62.93,-140.97 3.38,-39.43 18.38,-64.96 46.58,-89.32 21.64,-18.7 67.62,-32.85 106.7,-29.94zm0.97 -5.25c47.87,3.63 75.37,27.4 93.24,53.65 20.48,30.1 31.29,73.92 23.82,116.53 -12.61,72.01 -79.86,133.04 -171.06,117.8 -43.28,-7.23 -75.87,-29.07 -93.45,-52.64 -41.5,-55.63 -37.38,-160.87 30.55,-206.37 31.97,-21.42 68.34,-32.67 116.9,-28.97zm62.42 327.97c-27.98,4.11 -103.74,-4.29 -135.34,-6.85 -21.83,-1.77 -43.9,-3.73 -65.81,-5.64 -18.04,-1.56 -47.94,-3.69 -63.72,-7.78 3.32,-25.62 10.81,-51.73 14.02,-78.63 3.7,-30.97 7.19,-58.13 7.19,-89.88 0,-36.35 -6.8,-70.15 -9.59,-105.59l298.33 -83.16c7.64,14.96 13.9,76.91 15.14,97.71 2.16,36.25 1.47,73.25 -2.33,108.83 -6.88,64.61 -25.88,128.02 -57.89,170.99zm67.49 -191.72c16.74,-1.04 31.2,-2.05 45.33,-7.87 11,-4.54 26.46,-14.93 32.6,-21.82 -4.12,-11.83 -10.12,-7.15 -1.17,-20.39 -8.29,-19.59 -2.75,-33.27 10.12,-45.5 5.52,-5.25 21.37,-7.05 27.21,-38.93 6.62,-36.14 26.51,-29.51 32.92,-20.46 11.93,16.84 -5.56,36.19 -10.38,47.83 14.41,2 20.72,8.1 25.39,18.99 8.11,3.45 12.12,1.62 17.01,9.7 10.09,16.7 -1.11,44.03 -32.25,43.24 -7.99,9.6 -10.37,12.89 -27.28,12.08 -2.25,9.55 -3.45,6.04 -13.18,7.73 -5.77,1.01 -7.71,5.31 -11.71,8.85 -16.05,14.19 -32.97,23.68 -56.92,26.76 -23.01,2.96 -32.09,-0.56 -39.87,0.38 -2.49,40.19 -16.95,91.85 -31.3,125.34 -6.11,14.27 -19.9,41.68 -29.1,49.48 -9.96,8.45 -58.2,1.28 -73.82,0.19 -49.28,-3.46 -98.71,-7.23 -147.69,-12.45 -55.63,-5.93 -47.64,-2.39 -88.28,-31.9 -5.68,-4.13 -18.35,-13.13 -22.02,-17.09 -4.44,4.17 -6.9,10.53 -14.16,13.25 -12.09,4.52 -15.48,-0.75 -23.64,-2.12 -6.87,-1.14 -10.42,6.06 -21.57,1.51 -8.62,-3.53 -7.19,-8.47 -17.19,-12.02 -33.18,-11.8 -30.79,-57.56 -1.03,-64.66 -2.58,-9.98 -6.89,-17.41 2.03,-24.04 11.12,-8.27 15.66,0.91 23.38,-8.71 10.42,-12.99 20.85,-18.95 37.29,-27.85 -0.96,-53.63 -21.77,-114.5 -42.04,-162.85 -3.81,-9.1 -19.47,-41.94 -18.87,-49.64 7.55,-7.61 26.86,-11.86 38.7,-16.49 6.08,-11.96 0.74,-16.71 16.51,-24.08 16.09,-7.52 22.19,-0.33 30.03,7.57 22.42,-5.8 48.84,-16.34 71.55,-23.84 21.94,-7.25 130.45,-44.66 145.73,-41.83 23.59,4.38 85.37,24.86 108.77,35.16 15.73,6.92 17.16,7.61 24.12,23.01 21.3,47.12 31.13,100.64 34.63,152.81 2.14,31.91 -0.12,59.59 0.15,90.66z"/>
  <path id="Descripcion" fill-rule="nonzero" d="M757.7 312.59l17.1 0 0 134.43 13.54 0 0 40.47 -30.64 0 0 -174.9zm94.9 174.9l-17.78 0 -2.87 -29.2 -18.05 0 -3 29.2 -17.43 0 19.97 -174.9 19.19 0 19.97 174.9zm-23.92 -60.64c-2.56,-26.03 -4.47,-50.8 -5.76,-74.32l-0.21 0c-1.37,24.19 -3.26,48.96 -5.7,74.32l11.67 0zm21.46 -114.26l17.82 0 9.32 77.27c1.77,15.3 2.97,28.36 3.6,39.18l0.23 0c0.56,-9.53 1.2,-17.31 1.87,-23.43l10.38 -93.02 18.28 0 -22.63 174.9 -15.85 0 -23.02 -174.9zm119.12 174.9l-17.78 0 -2.87 -29.2 -18.05 0 -3.01 29.2 -17.43 0 19.98 -174.9 19.18 0 19.98 174.9zm-23.93 -60.64c-2.56,-26.03 -4.47,-50.8 -5.76,-74.32l-0.21 0c-1.37,24.19 -3.25,48.96 -5.7,74.32l11.67 0zm32.57 -114.26l17.26 0 21.73 100.89 -0.61 -18.87 0 -82.02 17.1 0 0 174.9 -17.55 0 -21.28 -99.32 0.46 21.77 0 77.55 -17.11 0 0 -174.9zm71.68 0l15.97 0c11.06,0 19.47,7.29 25.23,21.96 5.74,14.62 8.63,36 8.63,64.12 0,21.29 -1.42,38.51 -4.25,51.61 -2.85,13.1 -6.82,22.58 -11.91,28.44 -5.1,5.86 -10.75,8.77 -16.91,8.77l-16.76 0 0 -174.9zm17.11 37.21l0 100.35c5.18,-1.03 8.86,-5.32 11,-12.79 2.13,-7.47 3.21,-19.77 3.21,-36.85 0,-10.15 -0.38,-18.74 -1.13,-25.76 -0.76,-7.02 -1.87,-12.43 -3.36,-16.23 -1.48,-3.8 -2.92,-6.13 -4.35,-7.02 -1.41,-0.9 -3.2,-1.44 -5.37,-1.7zm44.24 -37.21l34.6 0 0 37.21 -17.49 0 0 32.24 15.18 0 0 36.27 -15.18 0 0 31.84 17.6 0 0 37.34 -34.71 0 0 -174.9zm48.2 0l19.91 0c8.06,0 14.41,4.79 19.07,14.4 4.68,9.62 7.01,22.67 7.01,39.17 0,8.5 -0.88,16.68 -2.65,24.55 -1.78,7.92 -4.36,13.87 -7.73,17.89l13.66 78.89 -18.07 0 -13.83 -79.65 -0.27 0 0 79.65 -17.1 0 0 -174.9zm17.1 33.81l0 41.5c7.55,-0.32 11.35,-6.49 11.35,-18.47 0,-8.09 -0.89,-13.91 -2.64,-17.4 -1.74,-3.48 -4.64,-5.36 -8.71,-5.63zm42.44 -33.81l17.1 0 0 174.9 -17.1 0 0 -174.9zm86.5 174.9l-17.78 0 -2.87 -29.2 -18.05 0 -3 29.2 -17.43 0 19.97 -174.9 19.19 0 19.97 174.9zm-23.92 -60.64c-2.56,-26.03 -4.47,-50.8 -5.76,-74.32l-0.21 0c-1.37,24.19 -3.26,48.96 -5.7,74.32l11.67 0zm82.08 -114.26l19.18 0c4.26,25.13 7.34,44.54 9.25,58.18l0.23 0c1.93,-14 4.97,-33.36 9.15,-58.18l19.63 0 -20.21 95.74 0 79.16 -17.32 0 0 -79.16 -19.91 -95.74zm117.27 0l40.79 0 0 39.94 -11.79 0 0 134.96 -17.33 0 0 -134.96 -11.67 0 0 -39.94zm52.02 0l17.11 0 0 174.9 -17.11 0 0 -174.9zm33.81 0l17.26 0 21.73 100.89 -0.62 -18.87 0 -82.02 17.1 0 0 174.9 -17.54 0 -21.29 -99.32 0.46 21.77 0 77.55 -17.1 0 0 -174.9zm66.03 0l40.8 0 0 39.94 -11.79 0 0 134.96 -17.34 0 0 -134.96 -11.67 0 0 -39.94zm74.93 179.24c-9.09,0 -16.04,-8.14 -20.82,-24.33 -4.78,-16.19 -7.17,-39.58 -7.17,-70.17 0,-28.21 2.41,-50.17 7.21,-65.96 4.79,-15.74 11.48,-23.65 20.05,-23.65 9.15,0 16.14,7.91 20.98,23.74 4.83,15.79 7.24,38.37 7.24,67.71 0,29.38 -2.37,52.14 -7.13,68.33 -4.78,16.19 -11.56,24.33 -20.36,24.33zm-0.61 -144.4c-6.17,0 -9.25,16.81 -9.25,50.44 0,21.64 0.77,36.13 2.33,43.38 1.56,7.24 3.83,10.87 6.8,10.87 3.2,0 5.66,-3.63 7.38,-10.87 1.69,-7.25 2.56,-21.47 2.56,-42.58 0,-34.16 -3.28,-51.24 -9.82,-51.24zm40.79 -34.84l19.92 0c8.05,0 14.41,4.79 19.07,14.4 4.68,9.62 7.01,22.67 7.01,39.17 0,8.5 -0.88,16.68 -2.66,24.55 -1.77,7.92 -4.35,13.87 -7.72,17.89l13.66 78.89 -18.07 0 -13.83 -79.65 -0.27 0 0 79.65 -17.11 0 0 -174.9zm17.11 33.81l0 41.5c7.55,-0.32 11.34,-6.49 11.34,-18.47 0,-8.09 -0.88,-13.91 -2.63,-17.4 -1.74,-3.48 -4.65,-5.36 -8.71,-5.63zm41.82 -33.81l34.59 0 0 37.21 -17.49 0 0 32.24 15.18 0 0 36.27 -15.18 0 0 31.84 17.61 0 0 37.34 -34.71 0 0 -174.9zm48.19 0l19.92 0c8.05,0 14.41,4.79 19.07,14.4 4.68,9.62 7.01,22.67 7.01,39.17 0,8.5 -0.89,16.68 -2.66,24.55 -1.77,7.92 -4.35,13.87 -7.72,17.89l13.65 78.89 -18.06 0 -13.83 -79.65 -0.27 0 0 79.65 -17.11 0 0 -174.9zm17.11 33.81l0 41.5c7.55,-0.32 11.34,-6.49 11.34,-18.47 0,-8.09 -0.88,-13.91 -2.64,-17.4 -1.73,-3.48 -4.64,-5.36 -8.7,-5.63zm42.43 -33.81l17.11 0 0 174.9 -17.11 0 0 -174.9zm86.51 174.9l-17.78 0 -2.87 -29.2 -18.05 0 -3 29.2 -17.44 0 19.98 -174.9 19.18 0 19.98 174.9zm-23.92 -60.64c-2.57,-26.03 -4.47,-50.8 -5.76,-74.32l-0.22 0c-1.36,24.19 -3.25,48.96 -5.7,74.32l11.68 0z"/>
  <path id="Nombre" fill-rule="nonzero" d="M874.96 55.7l35.14 0 0 213.45 -33.52 0 -78.6 -139.39 0 139.39 -35.14 0 0 -213.45 32.83 0 79.29 140.3 0 -140.3zm157.43 0l68.44 213.45 -37.92 0 -14.79 -45.76 -69.59 0 -14.57 45.76 -38.14 0 68.43 -213.45 38.14 0zm2.55 126.15l-21.5 -67.14 -21.5 67.14 43 0zm193.96 -126.15l35.14 0 0 213.45 -33.52 0 -78.6 -139.39 0 139.39 -35.14 0 0 -213.45 32.82 0 79.3 140.3 0 -140.3zm123.1 0c11.87,0 22.39,2.81 31.48,8.43 9.13,5.62 16.72,13.25 22.81,22.88 6.09,9.63 10.75,20.97 13.91,34.02 3.16,13.05 4.74,26.9 4.74,41.55 0,14.85 -1.66,28.75 -4.97,41.69 -3.31,12.95 -7.94,24.24 -13.8,33.87 -5.85,9.64 -12.79,17.21 -20.84,22.73 -8.01,5.52 -16.72,8.28 -26.16,8.28l-73.4 0 0 -213.45 66.23 0zm0.12 171.91c6.62,0 12.29,-1.76 16.99,-5.27 4.7,-3.51 8.59,-8.23 11.67,-14.25 3.09,-6.02 5.36,-12.95 6.82,-20.73 1.47,-7.82 2.2,-16 2.2,-24.63 0,-8.63 -0.69,-16.86 -2.08,-24.79 -1.39,-7.93 -3.62,-14.85 -6.71,-20.87 -3.08,-6.03 -7.01,-10.79 -11.79,-14.4 -4.77,-3.62 -10.48,-5.42 -17.1,-5.42l-31.21 0 0 130.36 31.21 0zm168.76 -174.92c11.09,0 21.58,2.91 31.44,8.73 9.86,5.82 18.45,13.75 25.78,23.78 7.32,10.04 13.1,21.68 17.33,34.93 4.24,13.24 6.36,27.39 6.36,42.45 0,14.85 -2.12,29 -6.36,42.45 -4.23,13.44 -10.01,25.18 -17.33,35.22 -7.33,10.04 -15.92,18.01 -25.78,23.94 -9.86,5.92 -20.35,8.88 -31.44,8.88 -11.1,0 -21.58,-2.96 -31.44,-8.88 -9.86,-5.93 -18.42,-13.9 -25.66,-23.94 -7.25,-10.04 -12.99,-21.78 -17.23,-35.22 -4.23,-13.45 -6.35,-27.6 -6.35,-42.45 0,-15.06 2.12,-29.21 6.35,-42.45 4.24,-13.25 9.98,-24.89 17.23,-34.93 7.24,-10.03 15.8,-17.96 25.66,-23.78 9.86,-5.82 20.34,-8.73 31.44,-8.73zm0.12 174.92c6.31,0 12.21,-1.71 17.76,-5.12 5.51,-3.41 10.36,-8.08 14.52,-14 4.16,-5.92 7.4,-12.8 9.79,-20.62 2.39,-7.83 3.58,-16.26 3.58,-25.29 0,-9.03 -1.19,-17.51 -3.58,-25.44 -2.39,-7.93 -5.63,-14.86 -9.79,-20.78 -4.16,-5.92 -9.01,-10.59 -14.52,-14 -5.55,-3.41 -11.45,-5.11 -17.76,-5.11 -6.32,0 -12.22,1.7 -17.77,5.11 -5.51,3.41 -10.36,8.08 -14.52,14 -4.16,5.92 -7.4,12.85 -9.79,20.78 -2.39,7.93 -3.59,16.41 -3.59,25.44 0,9.03 1.2,17.46 3.59,25.29 2.39,7.82 5.63,14.7 9.79,20.62 4.16,5.92 9.01,10.59 14.52,14 5.55,3.41 11.45,5.12 17.77,5.12zm104.37 -171.91l35.84 0 -18.96 81.59 -24.51 0 7.63 -81.59zm155.59 103.56c6.47,5.02 11.4,11.45 14.79,19.27 3.39,7.83 5.09,16.86 5.09,27.1 0,9.63 -1.78,18.61 -5.32,26.94 -3.54,8.33 -8.55,15.71 -15.03,22.13 -5.85,5.82 -12.52,10.29 -19.99,13.4 -7.48,3.11 -15.38,4.77 -23.7,4.97 -8.32,0 -16.26,-1.51 -23.81,-4.52 -7.55,-3.01 -14.26,-7.52 -20.11,-13.55 -8.79,-8.63 -14.8,-19.06 -18.04,-31.31l32.37 -19.57c0,2.01 0.54,4.52 1.62,7.53 1.08,3.01 2.77,5.92 5.08,8.73 2.32,2.81 5.32,5.22 9.02,7.23 3.7,2 8.25,3.01 13.64,3.01 4.32,0 8.13,-0.7 11.44,-2.11 3.32,-1.4 6.09,-3.16 8.33,-5.27 2.23,-2.11 3.93,-4.51 5.08,-7.22 1.16,-2.72 1.74,-5.47 1.74,-8.28 0,-3.22 -0.81,-6.23 -2.43,-9.04 -1.62,-2.81 -4.12,-5.01 -7.52,-6.62 -6.16,-2.81 -12.67,-5.17 -19.53,-7.08 -6.86,-1.9 -13.52,-4.31 -20,-7.22 -6.47,-2.91 -12.48,-6.77 -18.03,-11.59 -5.55,-4.82 -9.94,-11.54 -13.18,-20.17 -2.93,-7.63 -4.39,-15.76 -4.39,-24.39 0,-9.63 1.74,-18.96 5.2,-28 3.47,-9.03 8.21,-16.66 14.22,-22.88 5.7,-5.82 12.1,-10.28 19.19,-13.39 7.09,-3.12 14.56,-4.67 22.42,-4.67 7.86,0 15.38,1.5 22.54,4.51 7.17,3.02 13.6,7.43 19.31,13.25 5.54,5.42 9.94,11.74 13.17,18.97l-26.35 23.48c-3.24,-5.82 -7.28,-10.49 -12.14,-14 -4.85,-3.51 -10.29,-5.27 -16.3,-5.27 -8.32,0 -14.75,2.41 -19.3,7.23 -4.55,4.82 -6.82,11.14 -6.82,18.97 0,3.61 1.27,6.82 3.81,9.63 2.55,2.81 5.86,5.32 9.94,7.53 4.09,2.2 8.67,4.16 13.76,5.87 5.09,1.7 10.13,3.41 15.14,5.11 5.01,1.71 9.75,3.47 14.22,5.27 4.47,1.81 8.09,3.82 10.87,6.02z"/>
 </g>
</svg>
